<svg width="13" height="13" viewBox="0 0 13 13" fill="none" xmlns="http://www.w3.org/2000/svg">
<path d="M3.5 6C3.5 5.72386 3.72386 5.5 4 5.5C4.27614 5.5 4.5 5.72386 4.5 6C4.5 6.27614 4.27614 6.5 4 6.5C3.72386 6.5 3.5 6.27614 3.5 6ZM4 7.5C3.72386 7.5 3.5 7.72386 3.5 8C3.5 8.27614 3.72386 8.5 4 8.5C4.27614 8.5 4.5 8.27614 4.5 8C4.5 7.72386 4.27614 7.5 4 7.5ZM5.5 6C5.5 5.72386 5.72386 5.5 6 5.5C6.27614 5.5 6.5 5.72386 6.5 6C6.5 6.27614 6.27614 6.5 6 6.5C5.72386 6.5 5.5 6.27614 5.5 6ZM6 7.5C5.72386 7.5 5.5 7.72386 5.5 8C5.5 8.27614 5.72386 8.5 6 8.5C6.27614 8.5 6.5 8.27614 6.5 8C6.5 7.72386 6.27614 7.5 6 7.5ZM7.5 6C7.5 5.72386 7.72386 5.5 8 5.5C8.27614 5.5 8.5 5.72386 8.5 6C8.5 6.27614 8.27614 6.5 8 6.5C7.72386 6.5 7.5 6.27614 7.5 6ZM1.5 4C1.5 2.61929 2.61929 1.5 4 1.5H9C10.3807 1.5 11.5 2.61929 11.5 4V9C11.5 10.3807 10.3807 11.5 9 11.5H4C2.61929 11.5 1.5 10.3807 1.5 9V4ZM4 2.5C3.34689 2.5 2.79127 2.9174 2.58535 3.5H10.4146C10.2087 2.9174 9.65311 2.5 9 2.5H4ZM10.5 4.5H2.5V9C2.5 9.82843 3.17157 10.5 4 10.5H9C9.82843 10.5 10.5 9.82843 10.5 9V4.5Z" fill="#616161"/>
</svg>
