<svg width="28" height="29" viewBox="0 0 28 29" fill="none" xmlns="http://www.w3.org/2000/svg">
<path d="M12.4996 3.64075C9.48342 3.64075 7.03833 6.08584 7.03833 9.10201C7.03833 12.1182 9.48342 14.5633 12.4996 14.5633C15.5158 14.5633 17.9609 12.1182 17.9609 9.10201C17.9609 6.08584 15.5158 3.64075 12.4996 3.64075ZM8.40365 9.10201C8.40365 6.83988 10.2375 5.00606 12.4996 5.00606C14.7617 5.00606 16.5955 6.83988 16.5955 9.10201C16.5955 11.3641 14.7617 13.198 12.4996 13.198C10.2375 13.198 8.40365 11.3641 8.40365 9.10201ZM5.68493 15.9286C4.17547 15.9286 2.94238 17.1394 2.94238 18.6592C2.94238 20.9682 4.07943 22.7092 5.85732 23.8428C7.60762 24.9588 9.96728 25.4858 12.4996 25.4858C13.8033 25.4858 15.0612 25.3461 16.2137 25.0583L15.1474 23.8922C14.3234 24.0431 13.4342 24.1205 12.4996 24.1205C10.1306 24.1205 8.05301 23.6235 6.59135 22.6916C5.15729 21.7772 4.3077 20.4461 4.3077 18.6592C4.3077 17.9038 4.91917 17.2939 5.68493 17.2939L12.908 17.2939C13.063 16.9501 13.2623 16.6206 13.5063 16.3137C13.6145 16.1776 13.7288 16.0492 13.8485 15.9286L5.68493 15.9286ZM20.008 17.2978L19.1503 16.6252C17.7364 15.5167 15.693 15.7571 14.575 17.1633C13.5754 18.4206 13.6375 20.2179 14.7214 21.4032L19.5042 26.6333C19.7748 26.9293 20.2411 26.9293 20.5117 26.6333L25.2949 21.4026C26.3785 20.2175 26.4407 18.4208 25.4417 17.1637C24.324 15.7572 22.2808 15.5165 20.8668 16.6246L20.008 17.2978Z" fill="white"/>
</svg>
