<svg width="28" height="29" viewBox="0 0 28 29" fill="none" xmlns="http://www.w3.org/2000/svg">
<path d="M13.0248 3.56482C10.0195 3.56482 7.58319 6.00113 7.58319 9.00647C7.58319 12.0118 10.0195 14.4481 13.0248 14.4481C16.0302 14.4481 18.4665 12.0118 18.4665 9.00647C18.4665 6.00113 16.0302 3.56482 13.0248 3.56482ZM8.9436 9.00647C8.9436 6.75246 10.7708 4.92523 13.0248 4.92523C15.2788 4.92523 17.1061 6.75246 17.1061 9.00647C17.1061 11.2605 15.2788 13.0877 13.0248 13.0877C10.7708 13.0877 8.9436 11.2605 8.9436 9.00647ZM6.23465 15.8085C4.73061 15.8085 3.50195 17.015 3.50195 18.5294C3.50195 20.8301 4.63492 22.5648 6.40643 23.6943C8.15044 24.8063 10.5016 25.3314 13.0248 25.3314C14.3238 25.3314 15.5772 25.1922 16.7256 24.9055L15.6631 23.7436C14.8421 23.8939 13.9561 23.971 13.0248 23.971C10.6644 23.971 8.59422 23.4758 7.13782 22.5472C5.7089 21.6361 4.86237 20.3099 4.86237 18.5294C4.86237 17.7766 5.47164 17.1689 6.23465 17.1689L13.4317 17.1689C13.5862 16.8263 13.7848 16.498 14.0279 16.1923C14.1357 16.0567 14.2496 15.9287 14.369 15.8085L6.23465 15.8085ZM20.5063 17.1728L19.6516 16.5027C18.2429 15.3982 16.2068 15.6376 15.0928 17.0389C14.0968 18.2916 14.1586 20.0824 15.2387 21.2635L20.0043 26.4748C20.274 26.7697 20.7385 26.7697 21.0082 26.4748L25.7742 21.2629C26.8539 20.0821 26.9159 18.2918 25.9205 17.0392C24.8068 15.6378 22.7709 15.3979 21.362 16.5021L20.5063 17.1728Z" fill="white"/>
</svg>
