<svg width="28" height="29" viewBox="0 0 28 29" fill="none" xmlns="http://www.w3.org/2000/svg">
<path d="M12.2768 3.61682C9.26408 3.61682 6.82176 6.05913 6.82176 9.07188C6.82176 12.0846 9.26408 14.5269 12.2768 14.5269C15.2896 14.5269 17.7319 12.0846 17.7319 9.07188C17.7319 6.05913 15.2896 3.61682 12.2768 3.61682ZM8.18553 9.07188C8.18553 6.81232 10.0173 4.98059 12.2768 4.98059C14.5364 4.98059 16.3681 6.81232 16.3681 9.07188C16.3681 11.3314 14.5364 13.1632 12.2768 13.1632C10.0173 13.1632 8.18553 11.3314 8.18553 9.07188ZM5.4699 15.8907C3.96215 15.8907 2.73047 17.1002 2.73047 18.6182C2.73047 20.9246 3.86623 22.6636 5.6421 23.7959C7.39041 24.9106 9.74739 25.4371 12.2768 25.4371C13.579 25.4371 14.8355 25.2975 15.9867 25.0101L14.9216 23.8453C14.0986 23.996 13.2103 24.0733 12.2768 24.0733C9.91054 24.0733 7.83529 23.5769 6.37529 22.646C4.94286 21.7326 4.09423 20.4031 4.09423 18.6182C4.09423 17.8637 4.70501 17.2545 5.4699 17.2545L12.6847 17.2545C12.8396 16.911 13.0387 16.5819 13.2823 16.2754C13.3904 16.1395 13.5046 16.0112 13.6242 15.8907L5.4699 15.8907ZM19.7767 17.2583L18.9199 16.5866C17.5077 15.4793 15.4666 15.7194 14.3498 17.1241C13.3514 18.3799 13.4134 20.1751 14.4961 21.3591L19.2735 26.5833C19.5438 26.8789 20.0095 26.8789 20.2799 26.5833L25.0576 21.3585C26.14 20.1748 26.2021 18.3801 25.2042 17.1244C24.0878 15.7195 22.0469 15.4791 20.6345 16.586L19.7767 17.2583Z" fill="white"/>
</svg>
