<svg width="29" height="29" viewBox="0 0 29 29" fill="none" xmlns="http://www.w3.org/2000/svg">
<path d="M13.0727 3.3158C10.0316 3.3158 7.56631 5.78109 7.56631 8.82218C7.56631 11.8633 10.0316 14.3286 13.0727 14.3286C16.1138 14.3286 18.5791 11.8633 18.5791 8.82218C18.5791 5.78109 16.1138 3.3158 13.0727 3.3158ZM8.9429 8.82218C8.9429 6.54136 10.7919 4.69239 13.0727 4.69239C15.3535 4.69239 17.2025 6.54136 17.2025 8.82218C17.2025 11.103 15.3535 12.952 13.0727 12.952C10.7919 12.952 8.9429 11.103 8.9429 8.82218ZM6.20173 15.7052C4.6798 15.7052 3.43652 16.926 3.43652 18.4584C3.43652 20.7864 4.58297 22.5417 6.37555 23.6847C8.1403 24.8099 10.5195 25.3413 13.0727 25.3413C14.3871 25.3413 15.6554 25.2005 16.8175 24.9103L15.7424 23.7346C14.9116 23.8867 14.015 23.9647 13.0727 23.9647C10.6841 23.9647 8.58937 23.4637 7.11564 22.524C5.66973 21.6021 4.81312 20.26 4.81312 18.4584C4.81312 17.6967 5.42964 17.0817 6.20173 17.0817L13.4844 17.0818C13.6407 16.7351 13.8417 16.4028 14.0877 16.0935C14.1968 15.9562 14.3121 15.8268 14.4328 15.7052L6.20173 15.7052ZM20.6431 17.0856L19.7783 16.4076C18.3528 15.2899 16.2925 15.5322 15.1652 16.9501C14.1574 18.2178 14.22 20.0299 15.3129 21.225L20.1352 26.4983C20.408 26.7968 20.8782 26.7967 21.151 26.4983L25.9737 21.2244C27.0663 20.0295 27.129 18.218 26.1217 16.9504C24.9948 15.5324 22.9347 15.2896 21.509 16.407L20.6431 17.0856Z" fill="white"/>
</svg>
