<svg width="28" height="29" viewBox="0 0 28 29" fill="none" xmlns="http://www.w3.org/2000/svg">
<path d="M12.6415 3.58325C9.63358 3.58325 7.19515 6.02169 7.19515 9.02965C7.19515 12.0376 9.63358 14.476 12.6415 14.476C15.6495 14.476 18.0879 12.0376 18.0879 9.02965C18.0879 6.02169 15.6495 3.58325 12.6415 3.58325ZM8.55675 9.02965C8.55675 6.77368 10.3856 4.94485 12.6415 4.94485C14.8975 4.94485 16.7263 6.77368 16.7263 9.02965C16.7263 11.2856 14.8975 13.1144 12.6415 13.1144C10.3856 13.1144 8.55675 11.2856 8.55675 9.02965ZM5.84543 15.8376C4.34008 15.8376 3.11035 17.0452 3.11035 18.5609C3.11035 20.8636 4.2443 22.5998 6.01736 23.7303C7.76289 24.8433 10.1161 25.3688 12.6415 25.3688C13.9417 25.3688 15.1961 25.2295 16.3456 24.9425L15.2821 23.7796C14.4604 23.9301 13.5736 24.0072 12.6415 24.0072C10.279 24.0072 8.20706 23.5116 6.74939 22.5822C5.31923 21.6703 4.47195 20.3429 4.47195 18.5609C4.47195 17.8075 5.08176 17.1992 5.84543 17.1992L13.0488 17.1992C13.2034 16.8563 13.4022 16.5277 13.6455 16.2217C13.7534 16.086 13.8674 15.9579 13.9868 15.8377L5.84543 15.8376ZM20.1295 17.2031L19.2741 16.5324C17.8641 15.4269 15.8263 15.6666 14.7113 17.069C13.7144 18.3229 13.7763 20.1153 14.8573 21.2974L19.6271 26.5133C19.897 26.8084 20.362 26.8084 20.6319 26.5132L25.402 21.2967C26.4827 20.1149 26.5447 18.3231 25.5484 17.0694C24.4338 15.6667 22.3961 15.4267 20.986 16.5318L20.1295 17.2031Z" fill="white"/>
</svg>
