<svg width="17" height="17" viewBox="0 0 17 17" fill="none" xmlns="http://www.w3.org/2000/svg">
<path d="M0.0822021 0.158081C-0.272778 0.158081 -0.560547 0.44585 -0.560547 0.80083C-0.560547 1.15581 -0.272778 1.44358 0.0822021 1.44358H0.560634C0.689613 1.44358 0.833673 1.50254 1.01438 1.8324C1.20047 2.17207 1.3257 2.62667 1.45914 3.1133L1.46089 3.11968L2.53951 6.76087L3.19125 9.13564C3.47215 10.1592 4.40258 10.8687 5.46396 10.8687H7.79771C7.84172 10.422 7.94 9.99126 8.08586 9.58316H5.46396C4.98151 9.58316 4.55859 9.26066 4.43091 8.79542L3.78686 6.44868C3.78351 6.43339 3.77958 6.41812 3.77506 6.40287L2.94071 3.58608H13.0801L12.3773 6.05058C12.6415 6.01098 12.9119 5.99045 13.1871 5.99045C13.3682 5.99045 13.5472 5.99934 13.7237 6.0167L14.3942 3.6656C14.5893 2.98139 14.0755 2.30058 13.364 2.30058H2.65389C2.62469 2.30058 2.59583 2.30172 2.56735 2.30397C2.46215 1.94764 2.32768 1.55408 2.14178 1.21475C1.86289 0.705697 1.37518 0.158081 0.560634 0.158081H0.0822021Z" fill="#212121"/>
<path fill-rule="evenodd" clip-rule="evenodd" d="M5.00994 15.1556C5.95656 15.1556 6.72394 14.3882 6.72394 13.4416C6.72394 12.4949 5.95656 11.7276 5.00994 11.7276C4.06333 11.7276 3.29595 12.4949 3.29595 13.4416C3.29595 14.3882 4.06333 15.1556 5.00994 15.1556ZM5.00994 13.0131C5.2466 13.0131 5.43844 13.2049 5.43844 13.4416C5.43844 13.6782 5.2466 13.8701 5.00994 13.8701C4.77329 13.8701 4.58145 13.6782 4.58145 13.4416C4.58145 13.2049 4.77329 13.0131 5.00994 13.0131Z" fill="#212121"/>
<path fill-rule="evenodd" clip-rule="evenodd" d="M13.1871 6.82364C15.718 6.82364 17.7697 8.87532 17.7697 11.4062C17.7697 13.9371 15.718 15.9887 13.1871 15.9887C10.6562 15.9887 8.60456 13.9371 8.60456 11.4062C8.60456 8.87532 10.6562 6.82364 13.1871 6.82364ZM13.6046 13.9087L13.6042 11.8228H15.6838C15.9137 11.8228 16.1 11.6363 16.1 11.4062C16.1 11.1761 15.9137 10.9896 15.6838 10.9896H13.6041L13.6037 8.90601C13.6037 8.67593 13.4172 8.48941 13.1871 8.48941C12.957 8.48941 12.7705 8.67593 12.7705 8.90601L12.7709 10.9896H10.6839C10.454 10.9896 10.2677 11.1761 10.2677 11.4062C10.2677 11.6363 10.454 11.8228 10.6839 11.8228H12.7711L12.7714 13.9087C12.7714 14.1388 12.958 14.3253 13.188 14.3253C13.4181 14.3253 13.6046 14.1388 13.6046 13.9087Z" fill="#212121"/>
</svg>
