<svg width="18" height="18" viewBox="0 0 18 18" fill="none" xmlns="http://www.w3.org/2000/svg">
<path d="M0.637976 0.397217C0.282935 0.397217 -0.00488281 0.685034 -0.00488281 1.04008C-0.00488281 1.39512 0.282935 1.68293 0.637976 1.68293H1.11649C1.24549 1.68293 1.38957 1.74191 1.57032 2.07182C1.75644 2.41155 1.88169 2.86623 2.01515 3.35294L2.0169 3.35932L3.0957 7.00113L3.74755 9.37631C4.0285 10.4 4.95909 11.1096 6.02065 11.1096H8.3548C8.39882 10.6629 8.49712 10.2321 8.643 9.8239H6.02065C5.53812 9.8239 5.11513 9.50135 4.98742 9.03603L4.34327 6.68889C4.33992 6.6736 4.33599 6.65832 4.33147 6.64308L3.49697 3.8258H13.6381L12.9352 6.29073C13.1994 6.25111 13.4699 6.23058 13.7451 6.23058C13.9262 6.23058 14.1053 6.23947 14.2818 6.25684L14.9524 3.90534C15.1476 3.22101 14.6337 2.54008 13.9221 2.54008H3.2101C3.1809 2.54008 3.15204 2.54122 3.12354 2.54347C3.01833 2.18709 2.88384 1.79346 2.69791 1.45407C2.41897 0.944926 1.93118 0.397217 1.11649 0.397217H0.637976Z" fill="#212121"/>
<path fill-rule="evenodd" clip-rule="evenodd" d="M5.56656 15.3973C6.51334 15.3973 7.28085 14.6297 7.28085 13.683C7.28085 12.7362 6.51334 11.9687 5.56656 11.9687C4.61978 11.9687 3.85227 12.7362 3.85227 13.683C3.85227 14.6297 4.61978 15.3973 5.56656 15.3973ZM5.56656 13.2544C5.80325 13.2544 5.99513 13.4463 5.99513 13.683C5.99513 13.9197 5.80325 14.1115 5.56656 14.1115C5.32987 14.1115 5.13799 13.9197 5.13799 13.683C5.13799 13.4463 5.32987 13.2544 5.56656 13.2544Z" fill="#212121"/>
<path fill-rule="evenodd" clip-rule="evenodd" d="M13.7451 7.06391C16.2764 7.06391 18.3285 9.11594 18.3285 11.6472C18.3285 14.1786 16.2764 16.2306 13.7451 16.2306C11.2138 16.2306 9.16179 14.1786 9.16179 11.6472C9.16179 9.11594 11.2138 7.06391 13.7451 7.06391ZM14.1627 14.1502L14.1623 12.0639H16.2423C16.4722 12.0639 16.6585 11.8774 16.6585 11.6473C16.6585 11.4171 16.4722 11.2306 16.2423 11.2306H14.1622L14.1618 9.14664C14.1618 8.91652 13.9752 8.72997 13.7451 8.72997C13.515 8.72997 13.3285 8.91652 13.3285 9.14664L13.3288 11.2306H11.2415C11.0116 11.2306 10.8252 11.4171 10.8252 11.6473C10.8252 11.8774 11.0116 12.0639 11.2415 12.0639H13.329L13.3294 14.1502C13.3294 14.3803 13.5159 14.5668 13.7461 14.5668C13.9762 14.5668 14.1627 14.3803 14.1627 14.1502Z" fill="#212121"/>
</svg>
