<svg width="17" height="16" viewBox="0 0 17 16" fill="none" xmlns="http://www.w3.org/2000/svg">
<path d="M0.655685 0.335327C0.329696 0.335327 0.0654297 0.599593 0.0654297 0.925582C0.0654297 1.25157 0.329696 1.51584 0.655685 1.51584H1.09504C1.21349 1.51584 1.34578 1.56998 1.51173 1.8729C1.68262 2.18483 1.79763 2.60231 1.92017 3.04919L1.92177 3.05505L2.9123 6.39886L3.51081 8.57968C3.76877 9.51962 4.62321 10.1712 5.5979 10.1712H7.74106C7.78148 9.76097 7.87173 9.36542 8.00567 8.99065H5.5979C5.15486 8.99065 4.76648 8.69449 4.64923 8.26725L4.05778 6.11217C4.0547 6.09813 4.0511 6.0841 4.04695 6.0701L3.28074 3.48335H12.5921L11.9467 5.74658C12.1893 5.71021 12.4376 5.69136 12.6903 5.69136C12.8566 5.69136 13.021 5.69952 13.1831 5.71547L13.7988 3.55639C13.978 2.92805 13.5062 2.30284 12.8528 2.30284H3.01734C2.99053 2.30284 2.96403 2.3039 2.93786 2.30596C2.84126 1.97873 2.71777 1.61732 2.54705 1.3057C2.29095 0.838219 1.84307 0.335327 1.09504 0.335327H0.655685Z" fill="#212121"/>
<path fill-rule="evenodd" clip-rule="evenodd" d="M5.18097 14.1079C6.05028 14.1079 6.75499 13.4032 6.75499 12.5339C6.75499 11.6646 6.05028 10.9599 5.18097 10.9599C4.31167 10.9599 3.60696 11.6646 3.60696 12.5339C3.60696 13.4032 4.31167 14.1079 5.18097 14.1079ZM5.18097 12.1404C5.3983 12.1404 5.57448 12.3166 5.57448 12.5339C5.57448 12.7513 5.3983 12.9274 5.18097 12.9274C4.96365 12.9274 4.78747 12.7513 4.78747 12.5339C4.78747 12.3166 4.96365 12.1404 5.18097 12.1404Z" fill="#212121"/>
<path fill-rule="evenodd" clip-rule="evenodd" d="M12.6903 6.4565C15.0145 6.4565 16.8986 8.34062 16.8986 10.6648C16.8986 12.989 15.0145 14.8731 12.6903 14.8731C10.3661 14.8731 8.48201 12.989 8.48201 10.6648C8.48201 8.34062 10.3661 6.4565 12.6903 6.4565ZM13.0737 12.9629L13.0734 11.0474H14.9831C15.1942 11.0474 15.3653 10.8761 15.3653 10.6648C15.3653 10.4535 15.1942 10.2822 14.9831 10.2822H13.0732L13.0729 8.3688C13.0729 8.15751 12.9016 7.98623 12.6903 7.98623C12.479 7.98623 12.3077 8.15751 12.3077 8.3688L12.3081 10.2822H10.3915C10.1804 10.2822 10.0093 10.4535 10.0093 10.6648C10.0093 10.8761 10.1804 11.0474 10.3915 11.0474H12.3082L12.3086 12.9629C12.3086 13.1742 12.4799 13.3455 12.6912 13.3455C12.9024 13.3455 13.0737 13.1742 13.0737 12.9629Z" fill="#212121"/>
</svg>
