<svg width="17" height="17" viewBox="0 0 17 17" fill="none" xmlns="http://www.w3.org/2000/svg">
<path d="M-0.177398 0.674805C-0.520604 0.674805 -0.798828 0.953028 -0.798828 1.29623C-0.798828 1.63944 -0.520604 1.91766 -0.177398 1.91766H0.285165C0.409866 1.91766 0.549148 1.97467 0.723864 2.29359C0.90378 2.62199 1.02486 3.06152 1.15387 3.532L1.15556 3.53817L2.1984 7.05859L2.82852 9.35459C3.10011 10.3442 3.99968 11.0301 5.02585 11.0301H7.2822C7.32475 10.5983 7.41977 10.1818 7.56079 9.78727H5.02585C4.55941 9.78727 4.15051 9.47547 4.02707 9.02566L3.40438 6.75675C3.40114 6.74197 3.39735 6.7272 3.39298 6.71247L2.5863 3.9891H12.3894L11.7099 6.37186C11.9653 6.33357 12.2268 6.31372 12.4928 6.31372C12.6679 6.31372 12.841 6.32232 13.0117 6.33911L13.6599 4.06599C13.8486 3.40447 13.3518 2.74624 12.6639 2.74624H2.30899C2.28076 2.74624 2.25286 2.74735 2.22532 2.74951C2.12361 2.40501 1.9936 2.0245 1.81387 1.69643C1.54423 1.20426 1.0727 0.674805 0.285165 0.674805H-0.177398Z" fill="#212121"/>
<path fill-rule="evenodd" clip-rule="evenodd" d="M4.5869 15.1748C5.50212 15.1748 6.24405 14.4329 6.24405 13.5177C6.24405 12.6025 5.50212 11.8605 4.5869 11.8605C3.67168 11.8605 2.92975 12.6025 2.92975 13.5177C2.92975 14.4329 3.67168 15.1748 4.5869 15.1748ZM4.5869 13.1034C4.8157 13.1034 5.00119 13.2889 5.00119 13.5177C5.00119 13.7465 4.8157 13.932 4.5869 13.932C4.3581 13.932 4.17261 13.7465 4.17261 13.5177C4.17261 13.2889 4.3581 13.1034 4.5869 13.1034Z" fill="#212121"/>
<path fill-rule="evenodd" clip-rule="evenodd" d="M12.4928 7.11928C14.9398 7.11928 16.9234 9.10291 16.9234 11.5498C16.9234 13.9968 14.9398 15.9804 12.4928 15.9804C10.0459 15.9804 8.06229 13.9968 8.06229 11.5498C8.06229 9.10291 10.0459 7.11928 12.4928 7.11928ZM12.8965 13.9693L12.8961 11.9526H14.9068C15.129 11.9526 15.3091 11.7723 15.3091 11.5498C15.3091 11.3274 15.129 11.1471 14.9068 11.1471H12.896L12.8956 9.13258C12.8956 8.91013 12.7153 8.7298 12.4928 8.7298C12.2704 8.7298 12.0901 8.91013 12.0901 9.13258L12.0904 11.1471H10.0726C9.85041 11.1471 9.67025 11.3274 9.67025 11.5498C9.67025 11.7723 9.85041 11.9526 10.0726 11.9526H12.0906L12.091 13.9693C12.091 14.1918 12.2713 14.3721 12.4937 14.3721C12.7162 14.3721 12.8965 14.1918 12.8965 13.9693Z" fill="#212121"/>
</svg>
