<svg width="17" height="17" viewBox="0 0 17 17" fill="none" xmlns="http://www.w3.org/2000/svg">
<path d="M0.306977 0.674805C-0.0362294 0.674805 -0.314453 0.953028 -0.314453 1.29623C-0.314453 1.63944 -0.0362294 1.91766 0.306977 1.91766H0.76954C0.894241 1.91766 1.03352 1.97467 1.20824 2.29359C1.38816 2.62199 1.50923 3.06152 1.63825 3.532L1.63994 3.53817L2.68278 7.05859L3.3129 9.35459C3.58448 10.3442 4.48405 11.0301 5.51023 11.0301H7.76658C7.80913 10.5983 7.90414 10.1818 8.04517 9.78727H5.51023C5.04378 9.78727 4.63489 9.47547 4.51144 9.02566L3.88876 6.75675C3.88552 6.74197 3.88172 6.7272 3.87735 6.71247L3.07067 3.9891H12.8738L12.1943 6.37186C12.4497 6.33357 12.7111 6.31372 12.9772 6.31372C13.1523 6.31372 13.3254 6.32232 13.4961 6.33911L14.1443 4.06599C14.3329 3.40447 13.8362 2.74624 13.1483 2.74624H2.79336C2.76514 2.74624 2.73724 2.74735 2.70969 2.74951C2.60799 2.40501 2.47798 2.0245 2.29824 1.69643C2.02861 1.20426 1.55707 0.674805 0.76954 0.674805H0.306977Z" fill="#212121"/>
<path fill-rule="evenodd" clip-rule="evenodd" d="M5.07127 15.1748C5.98649 15.1748 6.72842 14.4329 6.72842 13.5177C6.72842 12.6025 5.98649 11.8605 5.07127 11.8605C4.15606 11.8605 3.41413 12.6025 3.41413 13.5177C3.41413 14.4329 4.15606 15.1748 5.07127 15.1748ZM5.07127 13.1034C5.30008 13.1034 5.48556 13.2889 5.48556 13.5177C5.48556 13.7465 5.30008 13.932 5.07127 13.932C4.84247 13.932 4.65699 13.7465 4.65699 13.5177C4.65699 13.2889 4.84247 13.1034 5.07127 13.1034Z" fill="#212121"/>
<path fill-rule="evenodd" clip-rule="evenodd" d="M12.9772 7.11928C15.4242 7.11928 17.4078 9.10291 17.4078 11.5498C17.4078 13.9968 15.4242 15.9804 12.9772 15.9804C10.5303 15.9804 8.54666 13.9968 8.54666 11.5498C8.54666 9.10291 10.5303 7.11928 12.9772 7.11928ZM13.3809 13.9693L13.3805 11.9526H15.3911C15.6134 11.9526 15.7935 11.7723 15.7935 11.5498C15.7935 11.3274 15.6134 11.1471 15.3911 11.1471H13.3804L13.38 9.13258C13.38 8.91013 13.1997 8.7298 12.9772 8.7298C12.7548 8.7298 12.5744 8.91013 12.5744 9.13258L12.5748 11.1471H10.557C10.3348 11.1471 10.1546 11.3274 10.1546 11.5498C10.1546 11.7723 10.3348 11.9526 10.557 11.9526H12.575L12.5753 13.9693C12.5753 14.1918 12.7557 14.3721 12.9781 14.3721C13.2006 14.3721 13.3809 14.1918 13.3809 13.9693Z" fill="#212121"/>
</svg>
