<svg width="17" height="17" viewBox="0 0 17 17" fill="none" xmlns="http://www.w3.org/2000/svg">
<path d="M0.328423 0.321533C-0.014762 0.321533 -0.292969 0.59974 -0.292969 0.942925C-0.292969 1.28611 -0.014762 1.56432 0.328423 1.56432H0.790958C0.915652 1.56432 1.05492 1.62132 1.22963 1.94022C1.40954 2.2686 1.53061 2.7081 1.65961 3.17856L1.6613 3.18473L2.70408 6.70493L3.33416 9.00079C3.60573 9.99032 4.50524 10.6762 5.53136 10.6762H7.78757C7.83012 10.2444 7.92513 9.82799 8.06614 9.43344H5.53136C5.06494 9.43344 4.65607 9.12166 4.53263 8.67188L3.90998 6.40311C3.90675 6.38833 3.90295 6.37356 3.89858 6.35883L3.09195 3.63563H12.8945L12.215 6.01824C12.4704 5.97995 12.7318 5.96011 12.9979 5.96011C13.173 5.96011 13.346 5.9687 13.5167 5.98549L14.1649 3.71251C14.3535 3.05103 13.8568 2.39284 13.1689 2.39284H2.81466C2.78643 2.39284 2.75853 2.39395 2.73099 2.39612C2.6293 2.05163 2.49929 1.67115 2.31957 1.3431C2.04995 0.850953 1.57844 0.321533 0.790958 0.321533H0.328423Z" fill="#212121"/>
<path fill-rule="evenodd" clip-rule="evenodd" d="M5.09243 14.8207C6.00759 14.8207 6.74948 14.0788 6.74948 13.1636C6.74948 12.2485 6.00759 11.5066 5.09243 11.5066C4.17727 11.5066 3.43538 12.2485 3.43538 13.1636C3.43538 14.0788 4.17727 14.8207 5.09243 14.8207ZM5.09243 12.7494C5.32122 12.7494 5.50669 12.9348 5.50669 13.1636C5.50669 13.3924 5.32122 13.5779 5.09243 13.5779C4.86364 13.5779 4.67817 13.3924 4.67817 13.1636C4.67817 12.9348 4.86364 12.7494 5.09243 12.7494Z" fill="#212121"/>
<path fill-rule="evenodd" clip-rule="evenodd" d="M12.9979 6.76561C15.4447 6.76561 17.4282 8.74912 17.4282 11.1959C17.4282 13.6427 15.4447 15.6262 12.9979 15.6262C10.5511 15.6262 8.56761 13.6427 8.56761 11.1959C8.56761 8.74912 10.5511 6.76561 12.9979 6.76561ZM13.4015 13.6153L13.4012 11.5987H15.4117C15.6339 11.5987 15.814 11.4183 15.814 11.1959C15.814 10.9735 15.6339 10.7932 15.4117 10.7932H13.401L13.4006 8.77879C13.4006 8.55636 13.2203 8.37604 12.9979 8.37604C12.7755 8.37604 12.5951 8.55636 12.5951 8.77879L12.5955 10.7932H10.5778C10.3556 10.7932 10.1755 10.9735 10.1755 11.1959C10.1755 11.4183 10.3556 11.5987 10.5778 11.5987H12.5957L12.596 13.6153C12.596 13.8377 12.7764 14.018 12.9988 14.018C13.2212 14.018 13.4015 13.8377 13.4015 13.6153Z" fill="#212121"/>
</svg>
