<svg width="18" height="19" viewBox="0 0 18 19" fill="none" xmlns="http://www.w3.org/2000/svg">
<path d="M0.426985 0.830688C0.0590294 0.830688 -0.239258 1.12898 -0.239258 1.49693C-0.239258 1.86489 0.0590294 2.16317 0.426985 2.16317H0.922905C1.0566 2.16317 1.20592 2.22429 1.39324 2.5662C1.58613 2.91829 1.71594 3.38952 1.85426 3.89393L1.85607 3.90054L2.97411 7.67483L3.64967 10.1364C3.94084 11.1973 4.90528 11.9328 6.00546 11.9328H8.42452C8.47014 11.4698 8.572 11.0233 8.7232 10.6003H6.00546C5.50538 10.6003 5.067 10.266 4.93465 9.78374L4.26706 7.35122C4.26359 7.33538 4.25951 7.31954 4.25483 7.30374L3.38998 4.38398H13.9L13.1715 6.93858C13.4454 6.89752 13.7257 6.87625 14.0109 6.87625C14.1986 6.87625 14.3842 6.88546 14.5672 6.90346L15.2621 4.46642C15.4644 3.7572 14.9318 3.0515 14.1943 3.0515H3.09267C3.06241 3.0515 3.0325 3.05269 3.00297 3.05501C2.89393 2.68566 2.75454 2.27772 2.56185 1.92599C2.27277 1.39832 1.76723 0.830688 0.922905 0.830688H0.426985Z" fill="#212121"/>
<path fill-rule="evenodd" clip-rule="evenodd" d="M5.53485 16.3764C6.51606 16.3764 7.3115 15.5809 7.3115 14.5997C7.3115 13.6185 6.51606 12.8231 5.53485 12.8231C4.55363 12.8231 3.7582 13.6185 3.7582 14.5997C3.7582 15.5809 4.55363 16.3764 5.53485 16.3764ZM5.53485 14.1555C5.78015 14.1555 5.97901 14.3544 5.97901 14.5997C5.97901 14.845 5.78015 15.0439 5.53485 15.0439C5.28954 15.0439 5.09069 14.845 5.09069 14.5997C5.09069 14.3544 5.28954 14.1555 5.53485 14.1555Z" fill="#212121"/>
<path fill-rule="evenodd" clip-rule="evenodd" d="M14.0109 7.73989C16.6343 7.73989 18.761 9.86656 18.761 12.4899C18.761 15.1133 16.6343 17.24 14.0109 17.24C11.3875 17.24 9.26086 15.1133 9.26086 12.4899C9.26086 9.86656 11.3875 7.73989 14.0109 7.73989ZM14.4437 15.0839L14.4433 12.9218H16.5989C16.8372 12.9218 17.0303 12.7284 17.0303 12.49C17.0303 12.2515 16.8372 12.0581 16.5989 12.0581H14.4431L14.4427 9.89837C14.4427 9.65988 14.2494 9.46655 14.0109 9.46655C13.7724 9.46655 13.5791 9.65988 13.5791 9.89837L13.5795 12.0581H11.4162C11.1779 12.0581 10.9848 12.2515 10.9848 12.49C10.9848 12.7284 11.1779 12.9218 11.4162 12.9218H13.5796L13.58 15.0839C13.58 15.3224 13.7734 15.5157 14.0119 15.5157C14.2504 15.5157 14.4437 15.3224 14.4437 15.0839Z" fill="#212121"/>
</svg>
