<svg width="17" height="17" viewBox="0 0 17 17" fill="none" xmlns="http://www.w3.org/2000/svg">
<path d="M0.322136 0.337158C-0.0213522 0.337158 -0.299805 0.615611 -0.299805 0.959099C-0.299805 1.30259 -0.0213522 1.58104 0.322136 1.58104H0.785079C0.909883 1.58104 1.04928 1.63809 1.22414 1.95727C1.4042 2.28595 1.52538 2.72584 1.6545 3.19671L1.65619 3.20288L2.69989 6.72619L3.33053 9.02408C3.60234 10.0145 4.50264 10.701 5.52966 10.701H7.78787C7.83045 10.2688 7.92555 9.85201 8.06669 9.45711H5.52966C5.06284 9.45711 4.65361 9.14506 4.53006 8.69488L3.90686 6.42411C3.90362 6.40932 3.89982 6.39453 3.89545 6.37979L3.08811 3.65418H12.8993L12.2192 6.0389C12.4748 6.00058 12.7365 5.98071 13.0028 5.98071C13.178 5.98071 13.3512 5.98931 13.5221 6.00612L14.1708 3.73113C14.3596 3.06907 13.8625 2.4103 13.174 2.4103H2.81057C2.78232 2.4103 2.75439 2.4114 2.72683 2.41357C2.62504 2.06879 2.49492 1.68797 2.31504 1.35962C2.04518 0.867046 1.57326 0.337158 0.785079 0.337158H0.322136Z" fill="#212121"/>
<path fill-rule="evenodd" clip-rule="evenodd" d="M5.09035 14.8491C6.00632 14.8491 6.74886 14.1066 6.74886 13.1906C6.74886 12.2746 6.00632 11.5321 5.09035 11.5321C4.17438 11.5321 3.43184 12.2746 3.43184 13.1906C3.43184 14.1066 4.17438 14.8491 5.09035 14.8491ZM5.09035 12.776C5.31934 12.776 5.50498 12.9616 5.50498 13.1906C5.50498 13.4196 5.31934 13.6052 5.09035 13.6052C4.86136 13.6052 4.67572 13.4196 4.67572 13.1906C4.67572 12.9616 4.86136 12.776 5.09035 12.776Z" fill="#212121"/>
<path fill-rule="evenodd" clip-rule="evenodd" d="M13.0028 6.78693C15.4517 6.78693 17.437 8.77219 17.437 11.2211C17.437 13.6701 15.4517 15.6553 13.0028 15.6553C10.5539 15.6553 8.5686 13.6701 8.5686 11.2211C8.5686 8.77219 10.5539 6.78693 13.0028 6.78693ZM13.4068 13.6426L13.4064 11.6242H15.4187C15.6411 11.6242 15.8214 11.4438 15.8214 11.2211C15.8214 10.9985 15.6411 10.818 15.4187 10.818H13.4063L13.4059 8.80189C13.4059 8.57925 13.2254 8.39878 13.0028 8.39878C12.7802 8.39878 12.5997 8.57925 12.5997 8.80189L12.6001 10.818H10.5806C10.3582 10.818 10.1779 10.9985 10.1779 11.2211C10.1779 11.4438 10.3582 11.6242 10.5806 11.6242H12.6002L12.6006 13.6426C12.6006 13.8653 12.7811 14.0457 13.0037 14.0457C13.2263 14.0457 13.4068 13.8653 13.4068 13.6426Z" fill="#212121"/>
</svg>
