<svg width="18" height="18" viewBox="0 0 18 18" fill="none" xmlns="http://www.w3.org/2000/svg">
<path d="M0.284404 0.119385C-0.0824713 0.119385 -0.379883 0.416796 -0.379883 0.783672C-0.379883 1.15055 -0.0824713 1.44796 0.284404 1.44796H0.778868C0.91217 1.44796 1.06106 1.5089 1.24782 1.84981C1.44015 2.20086 1.56958 2.6707 1.70748 3.17363L1.70929 3.18023L2.82405 6.94343L3.49763 9.39778C3.78795 10.4556 4.74955 11.1889 5.8465 11.1889H8.25846C8.30394 10.7272 8.40551 10.2821 8.55626 9.86029H5.8465C5.34789 9.86029 4.91079 9.52699 4.77883 9.04616L4.1132 6.62078C4.10974 6.60498 4.10568 6.58919 4.10101 6.57344L3.2387 3.66225H13.7179L12.9915 6.20934C13.2646 6.16841 13.544 6.14719 13.8285 6.14719C14.0156 6.14719 14.2006 6.15638 14.3831 6.17433L15.076 3.74444C15.2777 3.0373 14.7466 2.33368 14.0113 2.33368H2.94226C2.91209 2.33368 2.88227 2.33486 2.85282 2.33718C2.74411 1.96892 2.60513 1.56217 2.413 1.21147C2.12477 0.685351 1.62071 0.119385 0.778868 0.119385H0.284404Z" fill="#212121"/>
<path fill-rule="evenodd" clip-rule="evenodd" d="M5.37727 15.6194C6.35561 15.6194 7.14871 14.8263 7.14871 13.848C7.14871 12.8697 6.35561 12.0766 5.37727 12.0766C4.39894 12.0766 3.60584 12.8697 3.60584 13.848C3.60584 14.8263 4.39894 15.6194 5.37727 15.6194ZM5.37727 13.4051C5.62186 13.4051 5.82013 13.6034 5.82013 13.848C5.82013 14.0926 5.62186 14.2908 5.37727 14.2908C5.13269 14.2908 4.93442 14.0926 4.93442 13.848C4.93442 13.6034 5.13269 13.4051 5.37727 13.4051Z" fill="#212121"/>
<path fill-rule="evenodd" clip-rule="evenodd" d="M13.8285 7.0083C16.4441 7.0083 18.5646 9.12873 18.5646 11.7444C18.5646 14.3601 16.4441 16.4805 13.8285 16.4805C11.2128 16.4805 9.09234 14.3601 9.09234 11.7444C9.09234 9.12873 11.2128 7.0083 13.8285 7.0083ZM14.26 14.3308L14.2596 12.175H16.4089C16.6464 12.175 16.839 11.9822 16.839 11.7444C16.839 11.5066 16.6464 11.3139 16.4089 11.3139H14.2594L14.259 9.16045C14.259 8.92266 14.0662 8.7299 13.8285 8.7299C13.5907 8.7299 13.3979 8.92266 13.3979 9.16045L13.3983 11.3139H11.2413C11.0038 11.3139 10.8112 11.5066 10.8112 11.7444C10.8112 11.9822 11.0038 12.175 11.2413 12.175H13.3985L13.3989 14.3308C13.3989 14.5686 13.5916 14.7613 13.8294 14.7613C14.0672 14.7613 14.26 14.5686 14.26 14.3308Z" fill="#212121"/>
</svg>
