<svg width="17" height="17" viewBox="0 0 17 17" fill="none" xmlns="http://www.w3.org/2000/svg">
<path d="M0.33725 0.674805C-0.00595596 0.674805 -0.28418 0.953028 -0.28418 1.29623C-0.28418 1.63944 -0.00595596 1.91766 0.33725 1.91766H0.799813C0.924515 1.91766 1.0638 1.97467 1.23851 2.29359C1.41843 2.62199 1.53951 3.06152 1.66852 3.532L1.67021 3.53817L2.71305 7.05859L3.34317 9.35459C3.61476 10.3442 4.51432 11.0301 5.5405 11.0301H7.79685C7.8394 10.5983 7.93442 10.1818 8.07544 9.78727H5.5405C5.07406 9.78727 4.66516 9.47547 4.54172 9.02566L3.91903 6.75675C3.91579 6.74197 3.912 6.7272 3.90763 6.71247L3.10095 3.9891H12.9041L12.2246 6.37186C12.48 6.33357 12.7414 6.31372 13.0075 6.31372C13.1826 6.31372 13.3557 6.32232 13.5263 6.33911L14.1746 4.06599C14.3632 3.40447 13.8664 2.74624 13.1785 2.74624H2.82364C2.79541 2.74624 2.76751 2.74735 2.73997 2.74951C2.63826 2.40501 2.50825 2.0245 2.32852 1.69643C2.05888 1.20426 1.58735 0.674805 0.799813 0.674805H0.33725Z" fill="#212121"/>
<path fill-rule="evenodd" clip-rule="evenodd" d="M5.10155 15.1748C6.01676 15.1748 6.75869 14.4329 6.75869 13.5177C6.75869 12.6025 6.01676 11.8605 5.10155 11.8605C4.18633 11.8605 3.4444 12.6025 3.4444 13.5177C3.4444 14.4329 4.18633 15.1748 5.10155 15.1748ZM5.10155 13.1034C5.33035 13.1034 5.51583 13.2889 5.51583 13.5177C5.51583 13.7465 5.33035 13.932 5.10155 13.932C4.87274 13.932 4.68726 13.7465 4.68726 13.5177C4.68726 13.2889 4.87274 13.1034 5.10155 13.1034Z" fill="#212121"/>
<path fill-rule="evenodd" clip-rule="evenodd" d="M13.0075 7.11928C15.4544 7.11928 17.4381 9.10291 17.4381 11.5498C17.4381 13.9968 15.4544 15.9804 13.0075 15.9804C10.5606 15.9804 8.57694 13.9968 8.57694 11.5498C8.57694 9.10291 10.5606 7.11928 13.0075 7.11928ZM13.4112 13.9693L13.4108 11.9526H15.4214C15.6436 11.9526 15.8238 11.7723 15.8238 11.5498C15.8238 11.3274 15.6436 11.1471 15.4214 11.1471H13.4106L13.4103 9.13258C13.4103 8.91013 13.2299 8.7298 13.0075 8.7298C12.785 8.7298 12.6047 8.91013 12.6047 9.13258L12.6051 11.1471H10.5873C10.3651 11.1471 10.1849 11.3274 10.1849 11.5498C10.1849 11.7723 10.3651 11.9526 10.5873 11.9526H12.6052L12.6056 13.9693C12.6056 14.1918 12.7859 14.3721 13.0084 14.3721C13.2308 14.3721 13.4112 14.1918 13.4112 13.9693Z" fill="#212121"/>
</svg>
