<svg width="20" height="21" viewBox="0 0 20 21" fill="none" xmlns="http://www.w3.org/2000/svg">
<path d="M6 5C4.89543 5 4 5.89543 4 7V15C4 16.1046 4.89543 17 6 17H14C15.1046 17 16 16.1046 16 15V12.5C16 12.2239 16.2239 12 16.5 12C16.7761 12 17 12.2239 17 12.5V15C17 16.6569 15.6569 18 14 18H6C4.34315 18 3 16.6569 3 15V7C3 5.34315 4.34315 4 6 4H8.5C8.77614 4 9 4.22386 9 4.5C9 4.77614 8.77614 5 8.5 5H6ZM11 4.5C11 4.22386 11.2239 4 11.5 4H16.5C16.7761 4 17 4.22386 17 4.5V9.5C17 9.77614 16.7761 10 16.5 10C16.2239 10 16 9.77614 16 9.5V5.70711L11.8536 9.85355C11.6583 10.0488 11.3417 10.0488 11.1464 9.85355C10.9512 9.65829 10.9512 9.34171 11.1464 9.14645L15.2929 5H11.5C11.2239 5 11 4.77614 11 4.5Z" fill="#115EA3"/>
</svg>
