<svg width="24" height="25" viewBox="0 0 24 25" fill="none" xmlns="http://www.w3.org/2000/svg">
<g clip-path="url(#clip0_265_6157)">
<path d="M12.0016 2.35541C15.2079 2.3559 15.5876 2.37002 16.8485 2.42646C18.0204 2.4782 18.6531 2.67518 19.075 2.8393C19.6328 3.05501 20.0358 3.31758 20.453 3.73483C20.8748 4.15677 21.1325 4.55524 21.3481 5.11309C21.5121 5.53499 21.7089 6.17252 21.7602 7.33972C21.8163 8.60535 21.8303 8.98504 21.8298 12.1866C21.8293 15.3929 21.8152 15.7725 21.7587 17.0335C21.707 18.2053 21.51 18.8381 21.3459 19.26C21.1302 19.8177 20.8676 20.2208 20.4504 20.638C20.0284 21.0598 19.63 21.3175 19.0721 21.5331C18.6502 21.6971 18.0127 21.8938 16.8455 21.9452C15.5799 22.0013 15.2002 22.0153 11.9986 22.0148C8.79236 22.0143 8.41267 22.0002 7.15174 21.9437C5.97987 21.892 5.34709 21.695 4.92524 21.5309C4.36746 21.3152 3.96438 21.0526 3.54725 20.6354C3.12544 20.2134 2.86769 19.8149 2.65215 19.2571C2.48816 18.8352 2.29138 18.1977 2.23999 17.0305C2.18394 15.7648 2.16993 15.3851 2.17043 12.1836C2.17092 8.97734 2.18504 8.59765 2.24148 7.33672C2.29322 6.16485 2.4902 5.53207 2.65432 5.11022C2.87003 4.55244 3.1326 4.14936 3.54985 3.73223C3.97179 3.31042 4.37026 3.05267 4.92811 2.83713C5.35001 2.67314 5.98754 2.47636 7.15474 2.42497C8.41568 2.36892 8.79537 2.35491 12.0016 2.35541ZM12.002 0.194468C8.74414 0.193968 8.33633 0.207968 7.05663 0.264022C5.78162 0.320076 4.90503 0.526192 4.14561 0.821388C3.35337 1.13064 2.683 1.53835 2.01727 2.20856C1.34685 2.87408 0.938939 3.54433 0.629443 4.33179C0.334013 5.0958 0.12763 5.96765 0.0711839 7.24264C0.0147368 8.527 0.000611692 8.93481 0.000111802 12.1926C-0.000388089 15.4504 0.0136118 15.8583 0.0696655 17.138C0.12572 18.413 0.331835 19.2896 0.627031 20.049C0.936285 20.8412 1.34399 21.5116 2.01421 22.1773C2.67973 22.843 3.34998 23.2556 4.13743 23.5604C4.90145 23.8559 5.77329 24.0623 7.04828 24.1187C8.32796 24.1752 8.73577 24.1893 11.9936 24.1898C15.2514 24.1903 15.6592 24.1763 16.9389 24.1202C18.2139 24.0642 19.0905 23.8581 19.8499 23.5629C20.6375 23.2583 21.3079 22.8459 21.9736 22.1804C22.6393 21.5149 23.0519 20.8446 23.3567 20.0572C23.6521 19.2931 23.8585 18.4213 23.915 17.1463C23.9714 15.8666 23.9856 15.4588 23.9861 12.201C23.9865 8.94318 23.9726 8.53537 23.9165 7.25567C23.8604 5.98066 23.6543 5.10407 23.3591 4.34465C23.0639 3.54773 22.6562 2.87735 21.986 2.21163C21.3205 1.5459 20.6502 1.1333 19.8628 0.828487C19.0988 0.533057 18.2269 0.326673 16.9519 0.270228C15.6676 0.209093 15.2598 0.194968 12.002 0.194468Z" fill="white"/>
<path d="M12.001 6.03049C8.59785 6.02996 5.83649 8.79048 5.83597 12.1936C5.83545 15.5967 8.59596 18.3581 11.9991 18.3586C15.4022 18.3591 18.1636 15.5986 18.1641 12.1955C18.1646 8.79237 15.4041 6.03101 12.001 6.03049ZM11.9994 16.193C9.7916 16.1926 8.00125 14.4017 8.00159 12.1939C8.00193 9.98612 9.79283 8.19577 12.0006 8.19611C14.2085 8.19645 15.9988 9.98735 15.9985 12.1952C15.9981 14.403 14.2072 16.1933 11.9994 16.193Z" fill="white"/>
<path d="M19.8476 5.78789C19.8475 6.58477 19.2005 7.22686 18.4083 7.22674C17.6115 7.22662 16.9694 6.57964 16.9695 5.78745C16.9696 4.99058 17.6166 4.34849 18.4088 4.34861C19.201 4.34873 19.8478 4.99571 19.8476 5.78789Z" fill="white"/>
</g>
<defs>
<clipPath id="clip0_265_6157">
<rect width="24" height="24" fill="white" transform="translate(0.00195312 0.192627)"/>
</clipPath>
</defs>
</svg>
