<svg width="24" height="25" viewBox="0 0 24 25" fill="none" xmlns="http://www.w3.org/2000/svg">
<g clip-path="url(#clip0_265_6151)">
<path d="M17.0745 0.17077L13.0298 0.170149L13.0273 16.5179C13.027 18.4658 11.4711 20.0656 9.53516 20.0653C7.59924 20.065 6.04384 18.4647 6.04413 16.5169C6.04443 14.6039 7.56575 13.0388 9.43256 12.9696L9.43319 8.86526C5.31933 8.93417 2.00009 12.3076 1.99944 16.5163C1.99879 20.7598 5.38613 24.169 9.56912 24.1696C13.752 24.1703 17.1404 20.7273 17.1411 16.5186L17.1424 8.13598C18.6633 9.24928 20.5299 9.91043 22.5005 9.94554L22.5011 5.84117C19.459 5.73636 17.074 3.23164 17.0745 0.17077Z" fill="white"/>
</g>
<defs>
<clipPath id="clip0_265_6151">
<rect width="24" height="24" fill="white" transform="translate(0.00195312 0.168213)"/>
</clipPath>
</defs>
</svg>
