<svg width="24" height="25" viewBox="0 0 24 25" fill="none" xmlns="http://www.w3.org/2000/svg">
<path d="M-0.00172952 24.1436L1.68622 17.9808C0.645493 16.1767 0.0988068 14.1316 0.100129 12.0346C0.104135 5.47857 5.43995 0.144389 11.995 0.145395C15.176 0.146883 18.1618 1.38634 20.4074 3.63469C22.6521 5.88303 23.8876 8.87122 23.8861 12.0492C23.8821 18.6062 18.5463 23.9404 11.9913 23.9394C10.0013 23.9381 8.04038 23.4388 6.30352 22.4905L-0.00172952 24.1436ZM6.59585 20.3376C8.2717 21.3328 9.87161 21.9291 11.9876 21.9304C17.4356 21.9312 21.8743 17.4979 21.8781 12.0469C21.881 6.58491 17.4646 2.15623 11.9986 2.1534C6.54664 2.15256 2.11096 6.58588 2.10813 12.0359C2.10679 14.2609 2.75853 15.927 3.85326 17.6701L2.8537 21.318L6.59585 20.3376ZM17.9837 14.8753C17.9097 14.7513 17.7117 14.6773 17.4137 14.5282C17.1168 14.3792 15.6559 13.66 15.3829 13.5609C15.1109 13.4619 14.9129 13.4118 14.7139 13.7098C14.5158 14.0068 13.9457 14.6767 13.7727 14.8747C13.5997 15.0726 13.4257 15.0976 13.1287 14.9486C12.8317 14.7995 11.8738 14.4864 10.7389 13.4732C9.85603 12.6851 9.25918 11.712 9.08622 11.4139C8.91327 11.1169 9.06829 10.9559 9.21632 10.808C9.35034 10.675 9.51337 10.461 9.6624 10.287C9.81342 10.1151 9.86244 9.99107 9.96247 9.79208C10.0615 9.5941 10.0125 9.42009 9.93755 9.27108C9.86258 9.12307 9.2688 7.65998 9.02189 7.06494C8.77998 6.4859 8.53497 6.56386 8.35297 6.55484L7.78297 6.54475C7.58497 6.54472 7.26296 6.61867 6.99091 6.91663C6.71887 7.21459 5.95076 7.93247 5.95053 9.39547C5.95031 10.8585 7.01509 12.2716 7.16306 12.4697C7.31203 12.6677 9.25757 15.67 12.2384 16.9574C12.9473 17.2635 13.5013 17.4466 13.9323 17.5837C14.6442 17.8098 15.2922 17.7779 15.8043 17.702C16.3753 17.6171 17.5624 16.9832 17.8105 16.2893C18.0586 15.5943 18.0587 14.9993 17.9837 14.8753Z" fill="white"/>
</svg>
