<svg width="30" height="31" viewBox="0 0 30 31" fill="none" xmlns="http://www.w3.org/2000/svg">
<g clip-path="url(#clip0_265_6142)">
<path d="M29.7024 9.13493C29.7024 9.13493 29.4098 7.06652 28.5076 6.15818C27.3652 4.96269 26.0878 4.95664 25.5019 4.88624C21.3066 4.58091 15.0078 4.57994 15.0078 4.57994L14.9961 4.57994C14.9961 4.57994 8.69727 4.57897 4.50191 4.88301C3.91596 4.95324 2.63861 4.9589 1.49585 6.15404C0.593369 7.0621 0.305942 9.13042 0.305942 9.13042C0.305942 9.13042 0.000881417 11.562 0.000509197 13.9878L0.000160352 16.2612C-0.000211868 18.687 0.298243 21.1187 0.298243 21.1187C0.298243 21.1187 0.590894 23.1871 1.48724 24.0954C2.62963 25.2909 4.12964 25.2501 4.79759 25.3792C7.1999 25.608 14.9987 25.6795 14.9987 25.6795C14.9987 25.6795 21.3034 25.6688 25.4988 25.3706C26.0847 25.3004 27.3621 25.2947 28.5048 24.0996C29.4073 23.1915 29.7006 21.1232 29.7006 21.1232C29.7006 21.1232 29.9998 18.6975 30.0002 16.2658L30.0005 13.9924C30.0009 11.5666 29.7024 9.13493 29.7024 9.13493ZM11.9001 19.0228L11.9014 10.5912L20.0043 14.8229L11.9001 19.0228Z" fill="white"/>
</g>
<defs>
<clipPath id="clip0_265_6142">
<rect width="30" height="30" fill="white" transform="translate(0.00292969 0.130371)"/>
</clipPath>
</defs>
</svg>
