<svg width="24" height="25" viewBox="0 0 24 25" fill="none" xmlns="http://www.w3.org/2000/svg">
<g clip-path="url(#clip0_265_6148)">
<path d="M12.002 0.157603C5.37383 0.156586 0.00112885 5.52764 0.000111802 12.1558C-0.000668603 17.2417 3.16273 21.5828 7.62496 23.3319C7.52198 22.3804 7.42377 20.9272 7.66768 19.8913C7.88813 18.9538 9.07484 13.929 9.07484 13.929C9.07484 13.929 8.71401 13.2118 8.71417 12.1477C8.71443 10.479 9.68025 9.23225 10.8849 9.23243C11.9068 9.23259 12.4036 10.0014 12.4034 10.9249C12.4033 11.9561 11.7468 13.4935 11.4091 14.9184C11.1276 16.1137 12.0087 17.0889 13.1853 17.089C15.3181 17.0894 16.9591 14.8396 16.9596 11.5959C16.96 8.72243 14.8978 6.71117 11.9494 6.71072C8.53688 6.7102 6.53024 9.26926 6.52984 11.9177C6.52968 12.949 6.92795 14.0553 7.42473 14.6553C7.52315 14.7725 7.53719 14.8804 7.50905 14.9975C7.41993 15.3772 7.21356 16.1928 7.17603 16.3569C7.12443 16.5772 7.00255 16.624 6.77288 16.5162C5.27299 15.8175 4.33582 13.6283 4.33609 11.8658C4.33668 8.0783 7.08877 4.60529 12.2638 4.60608C16.4263 4.60672 19.6602 7.5744 19.6596 11.54C19.6589 15.6744 17.0522 19.0021 13.4334 19.0016C12.2194 19.0014 11.0757 18.3684 10.6821 17.623C10.6821 17.623 10.0817 19.9151 9.93634 20.4776C9.6643 21.5182 8.93285 22.8259 8.44523 23.6227C9.57017 23.9697 10.7608 24.1574 11.9983 24.1576C18.6264 24.1586 23.9991 18.7876 24.0001 12.1594C24.0011 5.53132 18.6301 0.15862 12.002 0.157603Z" fill="white"/>
</g>
<defs>
<clipPath id="clip0_265_6148">
<rect width="24" height="24" fill="white" transform="translate(0.00195312 0.155762)"/>
</clipPath>
</defs>
</svg>
