<svg width="24" height="25" viewBox="0 0 24 25" fill="none" xmlns="http://www.w3.org/2000/svg">
<g clip-path="url(#clip0_265_6154)">
<path d="M12.002 0.182261C5.37459 0.181244 0.00112873 5.55306 0.000111802 12.1804C-0.000751705 17.8079 3.87308 22.5308 9.0996 23.8285L9.10083 15.849L6.62643 15.8486L6.62699 12.1814L9.10139 12.1818L9.10163 10.6017C9.10226 6.51734 10.951 4.6245 14.961 4.62512C15.7213 4.62523 17.0331 4.77471 17.5697 4.9236L17.5692 8.2476C17.286 8.21779 16.794 8.20284 16.183 8.20274C14.2154 8.20244 13.455 8.94776 13.4547 10.8855L13.4545 12.1825L17.3742 12.1831L16.7002 15.8502L13.4539 15.8497L13.4527 24.0946C19.3947 23.378 23.9997 18.3195 24.0006 12.1841C24.0011 5.55674 18.6293 0.183278 12.002 0.182261Z" fill="white"/>
</g>
<defs>
<clipPath id="clip0_265_6154">
<rect width="24" height="24" fill="white" transform="translate(0.00195312 0.18042)"/>
</clipPath>
</defs>
</svg>
