<svg width="172" height="143" viewBox="0 0 172 143" fill="none" xmlns="http://www.w3.org/2000/svg">
<path fill-rule="evenodd" clip-rule="evenodd" d="M41.9892 2.59302C40.2784 -0.538008 37.5047 -0.538003 35.7939 2.59302L1.29384 65.7335C-0.416958 68.8646 -0.416955 73.941 1.29384 77.072L35.7939 140.213C37.5047 143.344 40.2784 143.344 41.9892 140.213L76.4893 77.072C78.2001 73.941 78.2001 68.8646 76.4893 65.7335L41.9892 2.59302ZM135.441 2.59302C133.73 -0.538008 130.956 -0.538003 129.246 2.59302L94.7455 65.7335C93.0348 68.8646 93.0348 73.941 94.7456 77.072L129.246 140.213C130.956 143.344 133.73 143.344 135.441 140.213L169.941 77.072C171.652 73.941 171.652 68.8646 169.941 65.7335L135.441 2.59302Z" fill="#BC5C97"/>
</svg>
