<svg width="173" height="143" viewBox="0 0 173 143" fill="none" xmlns="http://www.w3.org/2000/svg">
<path fill-rule="evenodd" clip-rule="evenodd" d="M42.8496 2.5929C41.1388 -0.53813 38.365 -0.538125 36.6542 2.5929L2.15419 65.7334C0.443393 68.8644 0.443396 73.9409 2.15419 77.0719L36.6542 140.212C38.365 143.343 41.1388 143.343 42.8496 140.212L77.3496 77.0719C79.0604 73.9408 79.0604 68.8644 77.3496 65.7334L42.8496 2.5929ZM136.3 2.5929C134.59 -0.53813 131.816 -0.538125 130.105 2.5929L95.605 65.7334C93.8942 68.8644 93.8942 73.9409 95.605 77.0719L130.105 140.212C131.816 143.343 134.59 143.343 136.3 140.212L170.8 77.0719C172.511 73.9408 172.511 68.8644 170.8 65.7334L136.3 2.5929Z" fill="#BC5C97"/>
</svg>
