<svg width="173" height="143" viewBox="0 0 173 143" fill="none" xmlns="http://www.w3.org/2000/svg">
<path fill-rule="evenodd" clip-rule="evenodd" d="M42.9189 2.59302C41.2081 -0.538008 38.4344 -0.538003 36.7236 2.59302L2.22353 65.7335C0.512729 68.8646 0.512732 73.941 2.22353 77.072L36.7236 140.213C38.4344 143.344 41.2081 143.344 42.9189 140.213L77.419 77.072C79.1298 73.941 79.1297 68.8646 77.419 65.7335L42.9189 2.59302ZM136.371 2.59302C134.66 -0.538008 131.886 -0.538003 130.175 2.59302L95.6752 65.7335C93.9644 68.8646 93.9644 73.941 95.6752 77.072L130.175 140.213C131.886 143.344 134.66 143.344 136.371 140.213L170.871 77.072C172.581 73.941 172.581 68.8646 170.871 65.7335L136.371 2.59302Z" fill="#BC5C97"/>
</svg>
