<svg width="172" height="143" viewBox="0 0 172 143" fill="none" xmlns="http://www.w3.org/2000/svg">
<path fill-rule="evenodd" clip-rule="evenodd" d="M42.7099 2.69934C40.9991 -0.431685 38.2254 -0.43168 36.5146 2.69935L2.01454 65.8399C0.303745 68.9709 0.303748 74.0473 2.01454 77.1783L36.5146 140.319C38.2254 143.45 40.9991 143.45 42.7099 140.319L77.21 77.1783C78.9208 74.0473 78.9208 68.9709 77.21 65.8399L42.7099 2.69934ZM136.162 2.69934C134.451 -0.431685 131.677 -0.43168 129.966 2.69935L95.4662 65.8399C93.7555 68.9709 93.7555 74.0473 95.4663 77.1783L129.966 140.319C131.677 143.45 134.451 143.45 136.162 140.319L170.662 77.1783C172.372 74.0473 172.372 68.9709 170.662 65.8399L136.162 2.69934Z" fill="#BC5C97"/>
</svg>
