<svg width="173" height="143" viewBox="0 0 173 143" fill="none" xmlns="http://www.w3.org/2000/svg">
<path fill-rule="evenodd" clip-rule="evenodd" d="M42.7793 2.99951C41.0685 -0.131514 38.2947 -0.131509 36.5839 2.99952L2.08388 66.14C0.373081 69.2711 0.373084 74.3475 2.08388 77.4785L36.5839 140.619C38.2947 143.75 41.0685 143.75 42.7793 140.619L77.2793 77.4785C78.9901 74.3475 78.9901 69.2711 77.2793 66.14L42.7793 2.99951ZM136.23 2.99951C134.519 -0.131514 131.746 -0.131509 130.035 2.99952L95.5347 66.14C93.8239 69.2711 93.8239 74.3475 95.5347 77.4785L130.035 140.619C131.746 143.75 134.519 143.75 136.23 140.619L170.73 77.4785C172.441 74.3475 172.441 69.2711 170.73 66.14L136.23 2.99951Z" fill="#BC5C97"/>
</svg>
